<svg xmlns="http://www.w3.org/2000/svg" width="164" height="67" viewBox="0 0 164 67">
<path fill="#133433" fill-rule="evenodd" d="M 57.00,33.50 L 48.00,32.50 L 43.50,27.00 L 43.50,20.00 L 44.50,18.00 L 49.00,13.50 L 52.00,12.50 L 56.00,12.50 L 60.00,14.50 L 63.50,19.00 L 63.50,28.00 L 57.00,33.50 Z M 114.00,33.50 L 105.00,32.50 L 100.50,27.00 L 100.50,20.00 L 102.50,16.00 L 109.00,12.50 L 112.00,12.50 L 117.00,14.50 L 120.50,19.00 L 120.50,27.00 L 119.00,29.50 L 114.00,33.50 Z M 141.00,33.50 L 136.00,33.50 L 131.50,30.00 L 132.00,27.50 L 136.00,30.50 L 141.00,30.50 L 142.50,29.00 L 142.50,26.00 L 141.00,24.50 L 135.00,23.50 L 131.50,20.00 L 131.50,17.00 L 135.00,13.50 L 138.00,12.50 L 143.00,13.50 L 145.50,16.00 L 145.00,18.50 L 143.00,18.50 L 140.00,15.50 L 137.00,15.50 L 134.50,18.00 L 137.00,21.50 L 141.00,21.50 L 145.50,25.00 L 145.50,30.00 L 141.00,33.50 Z M 31.00,33.50 L 29.50,33.00 L 20.00,20.50 L 18.50,22.00 L 18.50,33.00 L 17.00,33.50 L 15.50,32.00 L 16.00,13.50 L 18.00,13.50 L 28.00,25.50 L 29.50,24.00 L 29.50,14.00 L 32.50,14.00 L 32.50,32.00 L 31.00,33.50 Z M 82.00,33.50 L 73.50,17.00 L 73.50,14.00 L 76.50,14.00 L 78.50,21.00 L 82.00,26.50 L 84.50,24.00 L 87.50,15.00 L 89.00,13.50 L 91.00,13.50 L 91.50,15.00 L 85.50,27.00 L 85.50,29.00 L 82.00,33.50 Z M 56.50,30.00 L 58.00,29.50 L 60.50,26.00 L 60.50,20.00 L 58.00,16.50 L 52.00,15.50 L 47.50,19.00 L 46.50,21.00 L 46.50,26.00 L 51.00,30.50 L 56.50,30.00 Z M 113.50,30.00 L 115.50,29.00 L 117.50,26.00 L 117.50,20.00 L 115.00,16.50 L 109.00,15.50 L 104.50,19.00 L 103.50,21.00 L 103.50,26.00 L 108.00,30.50 L 113.50,30.00 Z M 17.00,52.50 L 16.50,40.00 L 24.00,39.50 L 24.00,41.50 L 19.00,41.50 L 17.50,43.00 L 19.00,45.50 L 23.50,46.00 L 19.00,46.50 L 17.50,48.00 L 17.00,52.50 Z M 82.00,52.50 L 76.50,52.00 L 77.00,39.50 L 82.00,39.50 L 84.50,41.00 L 85.50,50.00 L 82.00,52.50 Z M 115.00,52.50 L 107.50,52.00 L 108.00,39.50 L 115.50,40.00 L 115.00,41.50 L 110.00,41.50 L 108.50,43.00 L 110.00,45.50 L 114.50,46.00 L 110.00,46.50 L 108.50,49.00 L 110.00,50.50 L 115.00,50.50 L 115.00,52.50 Z M 145.00,52.50 L 141.00,47.50 L 139.50,49.00 L 139.50,52.00 L 137.50,52.00 L 138.00,39.50 L 142.00,39.50 L 145.50,42.00 L 145.50,45.00 L 143.50,47.00 L 145.50,50.00 L 145.00,52.50 Z M 82.50,44.00 L 83.50,43.00 L 82.00,41.50 L 80.00,41.50 L 78.50,43.00 L 80.00,44.50 L 82.50,44.00 Z M 142.50,45.00 L 143.50,43.00 L 141.00,41.50 L 139.50,44.00 L 141.00,45.50 L 142.50,45.00 Z M 51.00,52.50 L 49.50,51.00 L 49.50,47.00 L 51.00,45.50 L 51.00,52.50 Z M 82.50,50.00 L 83.50,48.00 L 82.00,46.50 L 80.00,46.50 L 78.50,48.00 L 80.00,50.50 L 82.50,50.00 Z"/>
<path fill="#516b6b" fill-rule="evenodd" d="M 18.00,13.50 L 16.50,13.00 L 18.00,12.50 L 18.00,13.50 Z M 29.00,26.50 L 28.50,14.00 L 31.00,12.50 L 29.50,15.00 L 29.00,26.50 Z M 51.00,13.50 L 49.50,13.00 L 51.00,12.50 L 51.00,13.50 Z M 73.00,15.50 L 72.50,14.00 L 75.00,12.50 L 73.00,15.50 Z M 90.00,13.50 L 88.50,13.00 L 90.00,12.50 L 90.00,13.50 Z M 108.00,13.50 L 106.50,13.00 L 108.00,12.50 L 108.00,13.50 Z M 114.00,13.50 L 112.50,13.00 L 114.00,12.50 L 114.00,13.50 Z M 137.00,13.50 L 135.50,13.00 L 137.00,12.50 L 137.00,13.50 Z M 55.00,16.50 L 51.50,16.00 L 55.00,15.50 L 55.00,16.50 Z M 112.00,16.50 L 108.50,16.00 L 112.00,15.50 L 112.00,16.50 Z M 140.00,16.50 L 136.50,16.00 L 140.00,15.50 L 140.00,16.50 Z M 135.00,19.50 L 135.00,17.50 L 135.00,19.50 Z M 19.00,32.50 L 19.00,19.50 L 19.00,32.50 Z M 64.00,26.50 L 64.00,20.50 L 64.00,26.50 Z M 121.00,26.50 L 121.00,20.50 L 121.00,26.50 Z M 146.00,29.50 L 146.00,25.50 L 146.00,29.50 Z M 131.00,29.50 L 131.00,27.50 L 131.00,29.50 Z M 141.00,30.50 L 139.50,30.00 L 141.00,29.50 L 141.00,30.50 Z M 18.00,52.50 L 17.00,51.50 L 15.50,52.00 L 16.00,39.50 L 20.00,44.50 L 22.50,45.00 L 21.50,46.00 L 22.50,47.00 L 18.50,49.00 L 18.00,52.50 Z M 25.00,41.50 L 25.00,39.50 L 25.00,41.50 Z M 107.00,52.50 L 107.00,39.50 L 111.00,44.50 L 113.50,45.00 L 112.50,46.00 L 113.50,47.00 L 111.00,47.50 L 107.00,52.50 Z M 116.00,41.50 L 116.00,39.50 L 116.00,41.50 Z M 85.00,44.50 L 84.00,43.50 L 82.50,44.00 L 82.50,43.00 L 85.00,41.50 L 85.00,44.50 Z M 18.50,47.00 L 19.50,46.00 L 18.00,44.50 L 16.50,46.00 L 18.50,47.00 Z M 109.50,47.00 L 110.50,46.00 L 109.00,44.50 L 107.50,46.00 L 109.50,47.00 Z M 52.00,51.50 L 52.00,46.50 L 52.00,51.50 Z M 86.00,49.50 L 86.00,47.50 L 86.00,49.50 Z M 84.00,52.50 L 82.50,52.00 L 82.00,49.50 L 83.50,50.00 L 84.00,52.50 Z M 116.00,52.50 L 116.00,50.50 L 116.00,52.50 Z M 146.00,52.50 L 146.00,50.50 L 146.00,52.50 Z"/>
</svg>