<?xml version="1.0" encoding="UTF-8"?>
<svg xmlns="http://www.w3.org/2000/svg" width="225" height="225" viewBox="0 0 225 225" fill="none">
  <rect x="0" y="0" width="225" height="225" fill="#26292e"/>
  <path d="M 48.500 46.500 L 46.500 48.500 L 44.500 52.500 L 44.500 172.500 L 47.250 177.250 L 52.000 180.250 L 59.000 180.250 L 62.750 178.250 L 65.250 175.500 L 66.250 173.250 L 66.500 84.750 L 68.750 84.500 L 162.500 178.500 L 165.750 180.250 L 172.750 180.250 L 176.250 178.250 L 178.250 176.250 L 180.250 172.250 L 180.250 104.500 L 178.250 100.500 L 174.750 97.500 L 172.000 96.500 L 166.250 96.500 L 162.500 98.250 L 159.500 101.500 L 158.250 105.750 L 158.250 140.000 L 156.000 140.250 L 62.250 46.250 L 58.750 44.500 L 52.500 44.500 Z" fill="#ffffff"/>
  <path d="M 168.250 46.250 L 168.000 46.500 L 166.750 46.500 L 166.500 46.750 L 166.250 46.750 L 166.000 47.000 L 165.500 47.000 L 165.250 47.250 L 164.500 47.250 L 163.500 48.000 L 163.250 48.000 L 163.000 48.250 L 162.500 48.250 L 160.000 50.750 L 160.000 51.000 L 159.250 51.750 L 159.250 52.250 L 158.750 52.750 L 158.750 53.000 L 158.250 53.750 L 158.250 54.500 L 158.000 54.750 L 158.000 55.750 L 157.750 56.000 L 157.750 56.750 L 157.500 57.000 L 157.500 75.750 L 157.750 76.000 L 157.750 76.750 L 158.000 77.000 L 158.000 77.750 L 158.250 78.000 L 158.250 79.000 L 158.500 79.250 L 158.750 80.000 L 159.250 80.500 L 159.250 81.250 L 160.250 82.250 L 160.250 82.500 L 162.500 84.500 L 163.250 84.750 L 164.250 85.500 L 165.500 85.750 L 166.000 86.250 L 166.750 86.250 L 167.000 86.500 L 171.250 86.500 L 171.500 86.250 L 172.000 86.250 L 172.750 85.750 L 173.500 85.750 L 173.750 85.500 L 174.250 85.500 L 174.500 85.250 L 174.750 85.250 L 175.500 84.500 L 176.000 84.500 L 177.000 83.500 L 177.250 83.500 L 177.500 83.250 L 177.500 83.000 L 179.250 81.000 L 179.250 80.750 L 179.750 80.000 L 179.750 79.500 L 180.250 79.000 L 180.250 78.500 L 180.500 78.250 L 180.500 77.000 L 180.750 76.750 L 180.750 56.250 L 180.500 56.000 L 180.500 54.750 L 180.250 54.500 L 180.250 54.000 L 179.500 53.000 L 179.500 52.250 L 178.500 51.250 L 178.250 50.500 L 178.000 50.500 L 177.000 49.250 L 176.750 49.250 L 175.750 48.250 L 175.000 48.000 L 174.000 47.250 L 173.250 47.250 L 173.000 47.000 L 172.500 47.000 L 172.250 46.750 L 171.750 46.750 L 171.500 46.500 L 170.500 46.500 L 170.250 46.250 Z" fill="#3ec9c4"/>
</svg>
